<svg width="32" height="32" viewBox="0 0 32 32" fill="none" xmlns="http://www.w3.org/2000/svg">
<g id="icons">
<path id="Vector" d="M12 29.3333C12.7364 29.3333 13.3333 28.7363 13.3333 28C13.3333 27.2636 12.7364 26.6666 12 26.6666C11.2636 26.6666 10.6667 27.2636 10.6667 28C10.6667 28.7363 11.2636 29.3333 12 29.3333Z" stroke="#222222" stroke-width="1.5" stroke-linecap="round" stroke-linejoin="round"/>
<path id="Vector_2" d="M26.6667 29.3333C27.4031 29.3333 28 28.7363 28 28C28 27.2636 27.4031 26.6666 26.6667 26.6666C25.9303 26.6666 25.3333 27.2636 25.3333 28C25.3333 28.7363 25.9303 29.3333 26.6667 29.3333Z" stroke="#222222" stroke-width="1.5" stroke-linecap="round" stroke-linejoin="round"/>
<path id="Vector_3" d="M1.33334 1.33336H6.66668L10.24 19.1867C10.3619 19.8006 10.6959 20.352 11.1834 20.7444C11.6709 21.1369 12.2809 21.3454 12.9067 21.3334H25.8667C26.4924 21.3454 27.1024 21.1369 27.59 20.7444C28.0775 20.352 28.4114 19.8006 28.5333 19.1867L30.6667 8.00003H8.00001" stroke="#222222" stroke-width="1.5" stroke-linecap="round" stroke-linejoin="round"/>
</g>
</svg>
